<?xml version="1.0" encoding="UTF-8"?>
<svg id="Layer_2" data-name="Layer 2" xmlns="http://www.w3.org/2000/svg" viewBox="0 0 41.97 60.01">
  <defs>
    <style>
      .cls-1 {
        fill: #fff;
      }

      .cls-2 {
        fill: none;
        stroke: #fff;
        stroke-miterlimit: 10;
        stroke-width: .62px;
      }
    </style>
  </defs>
  <g id="Layer_1-2" data-name="Layer 1">
    <g>
      <ellipse class="cls-2" cx="20.99" cy="30" rx="20.67" ry="29.69"/>
      <g>
        <path class="cls-1" d="M30.02,42.06c-1.19.41-1.8,1.07-2.37,2.23-.02.05-.08.15-.12.14-.03,0-.06-.03-.09-.07-.07-.11-.14-.23-.2-.33-.26-.45-.59-.8-1.07-1.03-.36-.19-.75-.29-1.18-.23-.06,0-.15.03-.16.08-.02.04.01.09.06.15.08.11.19.2.28.29.55.55.96,1.36,1.26,2.1.53,1.25.39,2.97-1.06,3.38-.7.28-1.49.11-2.03-.4-.29-.25-.48-.6-.62-.96-.1-.23-.19-.45-.24-.7-.14-.73-.04-1.45-.04-2.19.02-1.33.2-2.62.5-3.92.32-1.39.65-2.71.94-4.11.32-1.35.28-2.77-.21-4.06-.02-.03-.06-.02-.11.03-.36.35-.71.86-1.24.93-.23.01-.5-.02-.72-.04-.2-.04-.44-.15-.66-.2-.08-.01-.14.04-.21.08-.25.15-.55.21-.83.3-.87.27-1.9.09-2.46-.68-.05-.07-.1-.16-.18-.2-.06-.03-.11-.01-.14.04-.41.75-.9,2-1.21,2.98-.25.79-.25,1-.43,1.95-.07.4-.16.78-.2,1.16-.03.4-.09,1.09-.13,1.52,0,.09,0,.13,0,.24.02.37.02.91.04,1.29.09,1.99.53,3.93,1.49,5.68.73,1.44,1.88,2.81,3.4,3.45.33.14.78.27,1.12.4.11.04.15.05.28.07.28.05.59.14.86.16.57.04,1.16.1,1.73.06,1.46-.14,3.13-.67,3.98-1.95.21-.31.43-.56.57-.9.28-.83.33-1.78.5-2.84.16-1.16.45-2.41,1.42-3.14.18-.13.47-.35.64-.47.2-.13.12-.15-.03-.24-.34-.17-.72-.18-1.1-.04h-.01ZM22.65,48.96c.03.08-.16.23-.22.27-.12.07-.23.13-.38.12-.21.02-.39-.07-.5-.25-.06-.1.08-.15.15-.18.07-.03.1-.06.17-.13.08-.06.15-.21.27-.16.12.07.15.19.31.23.06.03.15.05.19.1h0ZM21.96,41.05s-.02-.01-.04-.04c-.03-.06-.06-.13-.09-.19-.04-.09-.05-.1-.05-.2,0-.07-.02-.16-.01-.23,0-.01.01-.02.02-.03.07-.03.35-.17.47-.21.09.01.13.19.11.27-.02.05-.07.14-.1.2-.05.09-.1.19-.15.27-.03.06-.04.08-.08.11-.02.02-.05.04-.08.04h0ZM22.64,39.94s-.07.03-.08.01c0-.02-.05-.12-.05-.14.02-.03.07-.1.1-.13.02,0,.06,0,.08,0,.02,0,.04.04.05.07,0,.01,0,.02-.02.06-.02.03-.06.11-.08.13h0ZM22.97,39.27c-.05.08-.19.11-.28.14-.06,0-.11,0-.18-.02-.11-.02-.19-.04-.27-.12-.09-.08-.17-.13-.16-.23.02-.16.3-.09.4-.18.09-.05.24-.17.32-.21.05-.01.08.01.12.04.04.02.09.05.13.07.06.03.06.06.04.14-.04.11-.06.28-.12.38h0ZM20.9,36.36s-.12-.09-.17-.13c-.07-.05-.18-.14-.08-.19.12-.06.25-.09.35-.19.05-.05.12-.13.17-.18.03-.03.05-.04.07-.04.11.04.25.12.36.17.07.03.09.05.07.1-.03.09-.06.19-.11.27-.09.13-.23.24-.41.22-.09,0-.17,0-.24-.02h0ZM21.15,36.66c0,.1-.07.23-.15.3-.08.06-.16.18-.26.19-.11,0-.24,0-.34-.03-.09-.03-.17-.1-.24-.2-.03-.05-.1-.11-.06-.17.07-.11.19-.13.27-.22.05-.04.09-.12.16-.14.07,0,.18.1.27.11.11.03.34.05.35.15h0ZM22.16,35.94s-.08-.05-.13-.09c-.06-.04-.14-.1-.07-.17.05-.06.17-.07.23-.11.09-.07.19-.18.28-.26.06-.05.09-.04.15.01.06.05.13.11.19.16.05.05.12.08.13.14.02.13-.11.25-.22.31-.08.03-.15.06-.22.06-.11-.01-.24-.02-.34-.05h0ZM22.45,36.6s-.01.1-.03.14c-.1.18-.27.33-.48.34-.15-.03-.26-.14-.36-.26-.05-.06-.12-.13-.08-.21.03-.06.14-.09.2-.12.05-.03.09-.07.13-.11.13-.15.14-.07.28.01.09.06.12.09.2.12.04.02.1.04.13.08h0ZM22.2,35.02c-.09.15-.26.29-.42.33-.11.02-.27.02-.37,0-.12-.03-.24-.18-.33-.26-.07-.08-.03-.13.06-.15.03-.01.07-.02.1-.02.11-.02.2-.12.29-.19.04-.03.09-.07.13-.1.03-.02.05-.03.08,0,.07.05.31.2.42.27.06.04.06.08.04.13h0ZM21.48,37.99s.14-.08.18-.11c.07-.04.15-.17.23-.2.06,0,.08.05.14.12.05.06.11.13.16.19.05.05.06.15.02.22-.02.03-.04.04-.06.06-.07.06-.12.14-.23.14-.04,0-.08,0-.12.01-.06,0-.09-.02-.14-.05-.13-.06-.22-.23-.18-.37h0ZM23.43,38.02c-.03.1-.11.2-.13.3,0,.08-.06.19-.14.16-.07-.05-.15-.12-.22-.17-.06-.06-.11-.16-.13-.24-.01-.05-.02-.1,0-.12.05-.03.1-.05.15-.08.08-.04.22-.11.29-.14.01,0,.02,0,.03,0,.06.07.16.18.14.28h0ZM23.49,36.91c-.08.1-.19.2-.32.21-.08,0-.18,0-.26,0-.08-.02-.18-.07-.25-.11-.06-.04-.12-.09-.16-.15-.05-.06-.01-.12.04-.17.07-.08.24-.09.34-.15.05-.03.08-.07.14-.13.07-.06.1-.11.17-.11.13.05.26.21.33.33.06.08.04.18,0,.26h0ZM23.78,35.06c-.08.11-.27.2-.41.22-.19-.01-.4-.04-.51-.2-.11-.14,0-.2.12-.25.12-.05.18-.11.25-.2.09-.14.12-.18.26-.05.1.1.3.13.41.22.02.03,0,.06-.02.1-.03.06-.05.11-.09.16h0ZM22.75,33.49c.09-.08.25-.09.33-.18.13-.11.23-.22.33-.35.04-.04.06,0,.12.06.06.06.11.13.17.2.05.06.1.11.14.15.08.09.11.12.04.2-.12.15-.28.26-.46.31-.06.01-.14-.01-.21-.02-.18-.03-.28-.06-.41-.17-.05-.04-.12-.13-.07-.19h0ZM22.08,34.16c.07-.03.14-.05.19-.1.07-.06.13-.17.21-.19.05,0,.09.05.14.08.08.07.19.11.3.16.05.03.14.04.15.1-.02.13-.11.25-.21.34-.17.17-.41.1-.6.03-.1-.04-.2-.14-.27-.25-.05-.08.02-.12.08-.16h0ZM20.69,33.79c.08-.06.18-.16.26-.24.04-.04.07-.08.13-.1.05,0,.11.09.16.14.12.1.35.15.44.26.11.15-.02.32-.12.43-.25.31-.82.33-1.04-.02-.25-.41-.25-.27.16-.48h0ZM19.91,35.69c.1-.06.23-.1.31-.19.07-.08.14-.18.21-.26.04-.06.06-.06.12-.02.09.06.2.13.29.18.1.05.08.11.04.18-.08.12-.19.19-.34.25-.08.04-.15.05-.24.05-.1,0-.15,0-.25-.05-.05-.03-.2-.07-.13-.14h0ZM19.31,36.22s.15-.06.2-.1c.06-.04.13-.13.2-.15.05,0,.08.06.13.08.11.06.3.06.37.17.03.05,0,.09-.04.12-.04.03-.1.09-.14.11-.05.02-.14.02-.2.02-.09,0-.14.02-.23-.02-.11-.03-.21-.06-.27-.16-.01-.02-.03-.05-.02-.07h0ZM19.13,44.64c.06-.11.19-.1.3-.12.08-.02.17-.06.25-.08.03,0,.05,0,.07.02.05.06.21.24.31.34.05.06.09.08.05.12-.08.06-.14.12-.26.1-.13-.02-.26,0-.38-.06-.02-.01-.05-.03-.07-.04-.1-.05-.2-.14-.26-.23-.01-.02-.01-.03,0-.05h0ZM17.75,45.7s.04-.07.09-.08c.04,0,.12-.01.18-.02.17-.03.11.19.13.3,0,.07.03.15-.05.18-.05.02-.1-.04-.15-.09-.04-.04-.09-.07-.11-.1-.02-.03-.08-.15-.08-.19h0ZM17.76,46.61c0,.12-.01.3-.02.41,0,.05,0,.12-.07.12-.05,0-.13-.06-.18-.08-.07-.05-.14-.17-.18-.23-.03-.05-.02-.12-.03-.18,0-.05-.01-.12,0-.15,0-.05.04-.11.07-.14,0,0,.02,0,.03,0,.05.03.18.11.27.17.06.04.09.05.1.07h0ZM18.06,45.41c-.12.02-.3.02-.4-.03-.09-.05-.19-.16-.25-.25-.09-.15-.17-.57.14-.36.12.07.31.05.42.13.06.06.12.13.18.2.08.09.14.14.11.18-.04.06-.12.11-.19.13h0ZM17,37.32c0-.08.13-.1.19-.14.12-.05.21-.19.31-.28.05-.05.09-.12.16-.09.09.03.31.13.45.18.06.03.1.04.1.06,0,.06-.07.15-.1.2-.09.16-.26.29-.43.33-.09,0-.22,0-.31-.01-.09,0-.14-.04-.22-.1-.05-.04-.14-.09-.16-.15h0ZM17.14,44.65c0,.06-.11.2-.15.27-.08.12-.09.2-.17.15-.09-.08-.16-.18-.19-.29-.04-.11-.04-.19-.02-.3,0-.1,0-.16.06-.23.05-.05.13-.23.21-.19.06.06.04.18.05.25,0,.11.16.24.2.34h0ZM18.48,44.12c.06-.07.14-.16.18,0,.04.12.11.22.1.35,0,.04.01.09-.02.12-.04.03-.18.12-.27.19-.08.06-.09.07-.16,0-.05-.05-.08-.12-.08-.17.02-.06.08-.14.13-.25.04-.07.09-.16.12-.21h0ZM18.14,44.1s-.04.01-.06.02c-.02,0-.02,0-.02,0,0-.04-.01-.11-.02-.15,0-.03,0-.04,0-.05.01-.01.03-.03.04-.04.01,0,.05,0,.07,0,.02,0,.04.07.06.09,0,.01,0,.02,0,.04-.02.02-.05.08-.06.1h0ZM17.42,41.9s.11.05.15.09c.03.04.1.08.08.13-.04.04-.12.06-.17.08-.04.01-.08.05-.11.04-.07-.04-.07-.14-.1-.22-.01-.04-.02-.08-.02-.09,0-.02.02-.02.07-.03.03,0,.07-.01.1-.01h0ZM18.77,46.5c.07.04.04.25.05.32,0,.09.09.18.08.26,0,.04-.05.06-.08.08-.17.08-.36.01-.48-.11-.14-.14-.15-.36-.17-.53,0-.03.02-.03.04-.03.07,0,.27,0,.4,0,.09,0,.13,0,.16.01h0ZM18.78,46.35c-.15-.07-.24-.23-.28-.39,0-.03,0-.05.02-.08.03-.07.07-.18.11-.25.04-.07.13-.04.21-.07.06-.02.12-.04.17-.06.04-.01.06,0,.08.03.05.1.08.2.15.28.06.07.15.15.12.25-.02.11-.15.14-.23.2-.05.03-.09.06-.14.08-.06.02-.14.02-.2,0h0ZM18.85,45.05s.08-.05.1-.05c.02,0,.09.08.12.1.03.04.1.03.13.06.02.02.03.06.02.07,0,0-.05,0-.09.02-.05,0-.08.01-.11.01-.03-.02-.06-.05-.09-.08-.05-.05-.1-.06-.09-.12h0ZM18.78,36.41c-.09.13-.2.21-.35.25-.08.03-.13.04-.23.01-.05-.01-.1-.02-.14-.03-.1-.02-.17-.11-.25-.18-.18-.15.03-.18.14-.25.06-.04.15-.12.21-.18.04-.03.08-.08.13-.05.09.04.35.19.48.25.09.03.07.09.03.16h0ZM17.65,33.89c.11-.08.16-.14.25-.12.15.07.62.23.53.43-.1.17-.4.26-.59.24-.19-.02-.38-.11-.49-.26-.02-.03-.05-.05-.03-.08.09-.05.21-.12.32-.21h.01ZM16.99,33.45c.09-.08.14-.19.18-.31.06-.15.13-.14.17,0,.03.1.08.19.09.29,0,.06.02.21.02.29,0,.12-.15.11-.24.11-.07,0-.15,0-.2,0-.04,0-.08,0-.1-.03-.07-.06-.04-.13,0-.2.03-.05.04-.09.07-.13h0ZM16.48,34.91s.12-.06.17-.09c.11-.06.17-.13.26-.24.06-.07.1-.14.19-.06.09.07.15.12.26.16.05.02.1.04.14.07.02.02.02.04.01.07-.02.05-.07.15-.1.21-.05.11-.18.19-.27.26-.06.05-.13.04-.2.04-.18.01-.32-.05-.41-.2-.04-.06-.12-.16-.06-.22h0ZM15.52,41.27c.08,0,.18.07.27.1.1.04.12.05.2.13.09.08.19.17.27.26.07.09.09.24.1.35,0,.1.05.19.04.29-.02.14-.11.04-.17-.02-.08-.08-.13-.14-.24-.18-.08-.04-.18-.07-.26-.11-.05-.03-.06-.07-.09-.12-.04-.07-.12-.13-.14-.21-.02-.11,0-.27,0-.4,0-.05,0-.08.02-.09h0ZM15.52,42.9s.13-.1.19-.15c.09-.08.16-.06.27-.06.1-.01.16.04.23.11.03.03.08.07.1.1.03.04.03.11.04.16.01.07,0,.14-.08.15-.07,0-.22,0-.29,0-.09,0-.18.06-.26.09-.04.01-.09.05-.11,0-.02-.05-.05-.2-.07-.3-.01-.05-.02-.08-.01-.1h0ZM15.85,43.81c.11-.14.28-.26.46-.29.1-.01.24-.03.32.05.06.07.04.13-.05.15-.15.03-.24.1-.34.21-.05.04-.09.12-.15.14-.06,0-.18,0-.24,0,0,0-.02,0-.03,0-.02-.03,0-.07,0-.11.01-.04.02-.1.03-.13h0ZM16.23,45.38c-.06-.03-.11-.11-.16-.16-.03-.04-.05-.06-.07-.11-.08-.19-.11-.43.03-.58.06-.06.15-.17.24-.16.02,0,.04.04.04.08,0,.11.02.36.02.43.01.11.14.2.17.29,0,.04-.06.08-.09.11-.05.04-.11.11-.16.1h0ZM16.44,45.95c0-.05.08-.08.12-.09.08-.03.18-.09.24-.13.08-.06.15-.14.22-.21.05-.05.11-.1.16-.05.07.05.14.14.21.19.05.04.12.06.14.12.03.17-.14.3-.26.4-.13.09-.3.1-.46.07-.16,0-.33-.14-.37-.29h0ZM16.85,47.36c-.07-.07-.2-.2-.23-.3-.05-.16-.06-.39.07-.52.07-.07.11,0,.12.07.04.19.17.35.32.45.06.04.18.09.21.15,0,.07-.1.13-.13.19-.03.04-.06.09-.11.07-.07-.02-.18-.08-.25-.12h0ZM17.23,47.91c-.04-.05.01-.1.06-.13.04-.03.08-.06.13-.07.07,0,.31-.04.38-.04.12,0,.1.17.12.26.02.11-.04.13-.13.11-.15-.02-.29-.02-.44-.08-.05-.02-.08-.02-.11-.05h0ZM18.78,49.02c-.05.07-.16.04-.23.06-.1.01-.23.09-.31.1-.04,0-.09-.02-.13-.05-.06-.04-.15-.05-.21-.07-.12-.05-.12-.13-.04-.2.06-.07.1-.13.19-.16.11-.03.21-.07.31-.05.11,0,.2.02.3.07.05.02.11.04.14.08.03.06,0,.17-.02.22h0ZM19.05,48.12c-.06.12-.25.07-.38.09-.32.05-.63-.34-.52-.64.07-.2.12-.12.23-.01.06.04.15.07.21.1.11.04.24,0,.35,0,.08,0,.11.02.12.1,0,.11.02.25-.01.35h0ZM19.12,49.19c-.02-.09,0-.25,0-.35,0-.09-.01-.19.1-.21.05-.01.11,0,.16,0,.05,0,.08-.02.14-.04.25-.12.27-.04.31.2.01.07,0,.08-.05.13-.07.07-.14.14-.21.21-.08.08-.21.21-.26.27-.01.01-.02.02-.03.02-.03-.01-.04-.05-.07-.09-.03-.05-.06-.08-.07-.12h0ZM20.38,50.07c-.02.07-.01.17-.08.22-.09.06-.21.13-.3.15-.08.01-.18.03-.26.03-.14,0-.2-.18-.25-.29-.07-.13,0-.25.06-.39.05-.11.16-.2.26-.26.08-.01.14.06.22.1.13.09.31.08.45.13.02,0,.03.02.02.04-.02.06-.1.18-.12.26h0ZM20.52,47.99c-.29.39-.85.34-1.09-.08-.05-.09.04-.14.12-.15.16-.02.33-.11.45-.22.03-.03.07-.06.11-.05.11.05.24.12.35.18.07.04.1.05.1.11,0,.06,0,.14-.03.2h0ZM21.14,47.23c-.07.07-.16.14-.25.19-.08.03-.17,0-.25,0-.02,0-.05,0-.07,0-.1,0-.17-.07-.25-.13-.22-.15-.07-.23.1-.29.14-.05.22-.22.31-.32.04-.04.06-.07.11-.03.04.02.08.07.12.1.07.06.16.08.24.12.09.04.1.1.06.18-.03.06-.07.14-.11.19h0ZM21.3,39.54c.01-.11.19-.08.26-.1.1-.03.27-.09.36-.12.07-.03.1.02.14.07.06.08.21.22.2.3-.02.11-.14.23-.2.34-.07.12-.1.19-.26.12-.09-.04-.16-.12-.24-.18-.04-.04-.08-.06-.11-.1-.04-.08-.15-.23-.16-.32h0ZM21.36,48.36c-.02-.06,0-.18,0-.27,0-.07,0-.15.01-.21,0,0,0-.01.01-.02.08.02.42.19.52.23.03.01.03.03.02.05-.03.05-.11.2-.14.26-.04.08-.13.13-.19.2-.06.07-.19.12-.19-.03,0-.07,0-.17-.04-.22h0ZM21.58,49.98c-.02-.08-.05-.23-.07-.32-.03-.08.04-.15.14-.09.02.01.04.02.06.03.09.05.21.04.3.07.06.04.11.12.16.18.05.06.07.07,0,.13-.07.06-.13.16-.22.19-.05.01-.16.05-.21.06-.02,0-.04,0-.05-.01-.04-.05-.09-.18-.12-.24h0ZM22.66,50.52c-.05.06-.14.14-.21.18-.14.03-.37.02-.51.03-.1,0-.27-.12-.1-.19.19-.05.36-.09.5-.25.05-.04.1-.14.16-.14.04,0,.09.03.14.05.04.02.09.03.12.07.02.03,0,.06-.03.12-.02.05-.03.09-.06.14h0ZM23.47,49.41c-.06.17-.21.35-.35.43-.21.1-.44-.03-.57-.2-.13-.15.1-.18.2-.23.11-.05.21-.15.29-.24.1-.15.13-.12.25-.02.07.07.21.14.19.25h0ZM27.09,46.44c-.1-1.17-.63-2.23-1.49-3.03-.03-.03-.1-.09-.05-.11.05-.01.19.03.25.08.19.11.31.32.44.48.67.69.93,1.96,1.03,3.04.02.14-.03.18-.1.05-.08-.15-.07-.34-.08-.5h0ZM28.07,46.36s-.03-.03-.04-.07c-.05-.16.02-.33.03-.49-.03-.9.54-2.16,1.12-2.93.08-.1.16-.21.29-.27.1-.05.26-.06.15.05-.55.49-.85,1.16-1.12,1.83-.16.58-.27,1.15-.38,1.76,0,.04-.02.11-.04.12h0ZM29.11,44.57c-.23.65-.48,1.23-.61,1.93,0,.03-.01.1-.04.09-.12-.28.04-.61.13-.87.18-.48.43-1.17.61-1.67.12-.34.25-.72.58-.9.05-.03.06,0,.04.04-.26.46-.54.87-.71,1.37h0Z"/>
        <path class="cls-1" d="M18.3,33.31c.74.34,1.55.26,2.27-.17.78-.46,1.35-1.27,1.78-2.07.26-.48.38-.92.53-1.43l.28-.95s0,0,0,0c.36-.87.87-1.65,1.45-2.37,0,0,0,0,.01-.01l.67-.56c.11-.15.24.04.13.14-.6.33-.96.83-1.29,1.38l-.61,1.03s0,0,0,0l-.3.62s0,0,0,.01l-.56,1.87s0,0,0,0c-.34.85-.86,1.56-1.53,2.16-.04.03-.03.09.01.12.27.16.59.16.89.17.41.01.67-.11.96-.38.38-.36.7-.74.98-1.21l1.06-1.79c.64-1.08,1.21-2.26,1.52-3.49.18-.73.25-1.41-.06-2.13-.36-.85-1.36-1.25-2.21-1.62l.04-.02s.04-.02.05-.01c.2.04.37.11.55.2.19.11.43.25.6.37.2.14.53.14.7.32.09.1.28.36.33.46.23.47.35,1.1.33,1.63-.01.3-.08.79-.6,2.21-.24.66-1.61,3.18-2.22,4.23-.13.23-.25.3-.11.8.29.98.34,1.15.29,1.68-.15,1.58-.59,3.88.83,3.73.71-.07.56-.64.34-1.51l-.14-.33c-.17-.38-.05-.83.27-1.09.46-.38.85-.43.53-1.19-.86-2.05,1.45-2.24.94-3.64-.44-1.21-.45-2.07-.04-2.98.31-.68.57-.98.37-1.69-.13-.43-.16-.94-.27-1.38-.32-1.36-1.28-1.32-1.47-1.49-.13-.12-.04-.5.08-1.39.02-.12,0-.23-.03-.33-.1-.63-.58-1.12-1.21-1.35-.41-.14-.81-.53-.77-.97.05-.52.21-1.01.06-1.5-.11-.36-.25-.67-.57-.91-.64-.47-1.4-.6-2.16-.53-.84-.11-1.87.15-1.99,1.13,0,.02,0,.04,0,.06,0,0,0,0,0,.01-.18.37-.21.82-.24,1.24-.01.24-.16.78-.13,1.02.02.2.34.26.4.45.13.43.19.68.5,1.01.31.33.63.49,1.08.51.05-.02.1.03.09.09-.09.37-.31.65-.45.97-.03.07-.05.29-.2.24-1.31-.42-2.73,1.28-2.8,2.62-.1,1.76-.21,3.07-.25,3.91-.18-.27-.33-.56-.47-.86-.3-.66-.55-1.62-1.17-1.99-.21-.12-.5-.15-.78-.17,1.02-.36,1.98-1.22,1.95-1.37-.49-.17-1.41.11-1.87.35.3-.71.22-.69.15-1.71-.43.2-1.04,1.23-1.09,1.23-.04,0-.57-.95-1.31-1.33.11,1.05.47,1.49.44,1.58-1.11-.15-1.04-.05-2.15-.02.41.4.9.68,1.44.88.16.06.33.13.49.2-.27,0-.49.04-.62.15-.11.09-.17.2-.04.24l1.59.51c.22.07.91.28,1.08.44.3.27.42.26.5.66.36,1.74,1.2,3.37,2.4,4.67.1.29.51.5.77.62ZM24.23,22.59s-.08,0-.12,0c-.16-.04-.31-.09-.47-.14-.13-.04-.29-.06-.39-.14-.07-.05-.11-.13-.13-.22-.11-.42.15-.81.11-1.23-.03-.34-.27-.59-.53-.78.16,0,.32.03.44.15.21.21.22.54.16.82-.08.34-.17.75.07,1.07.09.12.18.19.33.24.18.06.4.09.56.2,0,.01-.02.02-.03.03ZM22.96,18.33l.13-.74c.29.07-.21.67.06,1.26.32.69,1.71,1.3,1.52,2.64-.01.09-.15.07-.14-.02.02-.23.05-.44-.04-.66-.52-1.22-1.7-1.42-1.52-2.48ZM19.97,16.3c.84-.16,1.68.02,2.37.49.8.54-.45,2.15.8,2.86.18.1.36.22.5.38.15.17.23.38.3.59.15.42.1.88.06,1.32,0,.03-.05-.01-.05-.02-.01-.02-.02-.04-.02-.06-.01-.08,0-.16.02-.24.2-.97-.56-1.6-1.31-2.09-.2-.13-.34-.35-.39-.58-.06-.26.01-.46.09-.7.13-.44.07-.89-.25-1.22-.14-.15-.32-.26-.49-.36-.49-.26-1.01-.34-1.62-.37Z"/>
        <path class="cls-1" d="M23.79,15.23c-.05.13.1.43.18.47.18.1.37.08.57-.01.09-.04.19-.07.26-.14l.42-.46.32-.37.29-.28c.1-.1.17-.21.22-.33l.36-.49.4-.52.19-.28.17-.33c.08-.15,0-.32-.1-.42-.06-.07-.14-.07-.24-.02-.12.05-.22.12-.32.21-.11.11-.25.21-.32.34-.11.21-.25.36-.42.53l-.41.41-.43.42-.33.34-.18.2c-.17.19-.46.28-.62.71Z"/>
        <path class="cls-1" d="M27.93,19.45l-.42-.22c-.16-.08-.31-.13-.48-.17l-.28-.13-.42-.11c-.19-.05-.36-.13-.56-.15-.1,0-.18-.04-.27-.07l-.34-.12-.29-.08c-.13-.04-.24-.01-.37.03-.09.03-.18.05-.24.14-.13.18-.12.43,0,.61.07.1.18.14.29.11.23-.05.43.03.65.1l.36.11.44.14c.23.07.45.12.69.16l.29.07.32.1.36.11.23.07c.21.02.21-.41.13-.61-.01-.03-.06-.08-.09-.09Z"/>
        <path class="cls-1" d="M16.93,12.05l.25.54.14.34.11.22.14.39.08.22.21.48c.03.08.06.19.1.25.1.13.16.25.24.38l.13.23c.08.2.2.34.38.46.15.1.32.14.47-.01.29-.28.09-.58-.02-.85l-.09-.24-.36-.58-.07-.14c-.07-.23-.18-.43-.34-.61l-.21-.3-.25-.37-.14-.19-.6-.94-.09-.11s-.1-.03-.13-.01c-.11.08-.09.24-.08.38.01.15.05.29.12.43Z"/>
        <path class="cls-1" d="M28.88,17.24c.11-.11.09-.33-.04-.42-.04-.02-.13,0-.16,0l-.31-.03-.27-.05c-.08-.01-.16-.02-.24.01-.1.04-.19,0-.29.01l-.43.03c-.14.01-.32,0-.45.06-.11.04-.19.07-.32.06-.18-.02-.38-.04-.55.01-.14.04-.27.02-.41.03l-.32.02-.37.1c-.07.02-.17.09-.2.14-.11.2-.15.46,0,.6.07.06.16.06.26.06.27,0,.53-.02.8-.07l.42-.07,1.1-.14.47-.09.29-.05.74-.12c.1-.02.23-.02.3-.09Z"/>
        <path class="cls-1" d="M14.95,14.24c.04.06.08.16.14.2.11.08.23.13.33.22l.43.41.21.17.2.19.21.19.2.17c.12.1.24.16.31.31.02.05.11.12.15.15l.33.25c.12.09.23.11.36.11.12,0,.26-.02.33-.14.03-.05,0-.15-.04-.2l-.57-.58c-.23-.24-.46-.47-.7-.7l-.33-.32-.2-.21-.65-.66c-.08-.08-.2-.12-.28-.18-.13-.11-.24-.18-.4-.23-.07-.02-.14-.07-.22-.04-.12.05-.18.35-.07.51l.26.37Z"/>
        <path class="cls-1" d="M19.27,11.48c-.01.16.06.31.09.47l.09.42.05.24c0,.15.03.29.09.42.02.28.06.55.15.82l.09.29c.03.11.07.24.07.35,0,.13.02.21.1.32.11.16.25.32.46.32.13,0,.22-.14.28-.24.22-.39-.24-.55-.23-.72l.02-.45c0-.12.05-.28-.03-.39-.09-.13-.13-.23-.13-.38,0-.1-.05-.22-.08-.31l-.09-.27-.09-.3-.12-.34c-.06-.16-.09-.3-.16-.45l-.05-.19c-.04-.13-.08-.23-.11-.36,0-.04-.06-.1-.1-.11-.17-.05-.41.4-.27.69.03.05-.02.12-.02.17Z"/>
        <path class="cls-1" d="M21.29,14.81c.03.1.14.19.25.2.13,0,.29-.05.37-.15.06-.09.1-.23.12-.35l.16-1.05.1-.57.03-.23c.03-.24-.06-1-.12-1.27-.02-.09-.06-.17-.06-.27,0-.07-.06-.17-.14-.14-.17.06-.26.25-.22.42l-.06.22c-.02.23-.07.44-.13.66l-.09.32c-.02.06-.02.12-.03.18l-.09.62c-.03.18-.07.34-.03.53.05.26-.15.52-.04.89Z"/>
        <path class="cls-1" d="M22.71,15.39c.24.06.47-.06.61-.26.07-.1-.07-.19.12-.46l.19-.26c.13-.18.23-.34.27-.56l.1-.33.15-.6.07-.22.24-1.02c-.06-.06-.13-.05-.17,0l-.22.26c-.11.14-.16.32-.24.47l-.12.21c-.09.17-.19.31-.29.47l-.19.29c-.08.13-.14.26-.24.38-.1.12-.14.27-.23.39-.14.21-.3.42-.37.67-.04.14,0,.25.07.36.07.11.14.18.27.21Z"/>
        <path class="cls-1" d="M26.23,15.41l-.36.09-.41.17-.5.19c-.08.03-.19.04-.26.09-.12.09-.18.25-.18.4,0,.12.07.24.19.27.13.03.25-.03.38-.07l.35-.12.24-.08c.16-.03.28-.06.41-.16l.33-.24c.19-.14.41-.2.63-.28l.23-.08.47-.19.57-.21.52-.22s.06-.05.06-.07c0-.02-.05-.07-.07-.07h-.3c-.23-.01-.39.11-.61.09l-.37.08-.26.09-.68.19-.38.12Z"/>
      </g>
    </g>
  </g>
</svg>