<?xml version="1.0" encoding="UTF-8"?>
<svg id="Layer_2" data-name="Layer 2" xmlns="http://www.w3.org/2000/svg" viewBox="0 0 198.53 42.83">
  <g id="Layer_1-2" data-name="Layer 1">
    <g>
      <path d="M0,0h10.28l10.34,18.27,3.63,8.59.3-.06c-.06,0-1.15-7.38-1.21-7.38V0h10.77v42.83h-10.95l-9.68-16.88-3.75-8.59-.3.06,1.39,8.29v17.12H0V0Z"/>
      <path d="M51.9,42.83v-16.88L36.96,0h12.58l7.74,15.73,7.74-15.73h12.7l-15,25.95v16.88h-10.83Z"/>
      <path d="M80.51,0h10.83l9.01,20.93L109.43,0h10.83v42.83h-10.89l.06-12.34.67-8.65-.36-.06-5.63,14.7h-7.44l-5.75-14.7-.3.06.73,8.65v12.34h-10.83V0Z"/>
      <path d="M127.03,0h17.12c10.47,0,15.67,7.56,15.67,15.12s-5.26,15.18-15.61,15.18h-6.35v12.52h-10.83V0ZM144.15,20.69c6.53.06,6.53-10.65,0-10.59h-6.29v10.59h6.29Z"/>
      <path d="M175.3,42.83h-10.89V0h10.89v16.21h12.34V0h10.89v42.83h-10.89v-16.15h-12.34v16.15Z"/>
    </g>
  </g>
</svg>