<?xml version="1.0" encoding="UTF-8"?>
<svg id="Layer_2" data-name="Layer 2" xmlns="http://www.w3.org/2000/svg" viewBox="0 0 320.84 265.11">
  <g id="Layer_1-2" data-name="Layer 1">
    <g>
      <g>
        <path d="M122.31,87.15h10.28l10.34,18.27,3.63,8.59.3-.06c-.06,0-1.15-7.38-1.21-7.38v-19.42h10.77v42.83h-10.95l-9.68-16.88-3.75-8.59-.3.06,1.39,8.29v17.12h-10.83v-42.83Z"/>
        <path d="M174.21,129.98v-16.88l-14.94-25.95h12.58l7.74,15.73,7.74-15.73h12.7l-15,25.95v16.88h-10.83Z"/>
        <path d="M202.82,87.15h10.83l9.01,20.93,9.07-20.93h10.83v42.83h-10.89l.06-12.34.67-8.65-.36-.06-5.63,14.7h-7.44l-5.75-14.7-.3.06.73,8.65v12.34h-10.83v-42.83Z"/>
        <path d="M249.34,87.15h17.12c10.47,0,15.67,7.56,15.67,15.12s-5.26,15.18-15.61,15.18h-6.35v12.52h-10.83v-42.83ZM266.46,107.84c6.53.06,6.53-10.65,0-10.59h-6.29v10.59h6.29Z"/>
        <path d="M297.61,129.98h-10.89v-42.83h10.89v16.21h12.34v-16.21h10.89v42.83h-10.89v-16.15h-12.34v16.15Z"/>
      </g>
      <g>
        <path d="M59.69,37.57v-.02s-.06,0-.08,0c.03,0,.05.01.08.02Z"/>
        <path d="M124.9,203.23c-8.6,3.07-11.98,7.41-16.05,15.89-2.12-3.41-3.56-6.54-6.54-8.51-3.39-2.24-7.03-3.73-11.3-2.53.33.95,1.2,1.82,2.1,2.64,3.53,3.19,6.23,8.41,8.16,12.91,2.9,6.75,3.64,14.96-1.56,20.18-1.63,1.63-4,2.49-6.34,3.15-6.26,1.76-12.77-2.24-15.11-8.21-.78-1.99-1.65-3.58-2.04-5.7-.84-4.55-.27-8.96-.22-13.58.09-9.26,1.41-18.02,3.53-26.98l3.78-15.96,2.32-10.99c1.78-8.44,1.06-16.86-1.83-24.88l-2.89,3.06c-1.64,1.74-3.91,3.82-6.45,3.63l-4.19-.31-4.37-1.47c-1.68,1.54-3.81,1.79-5.93,2.48-5.5,1.8-11.46.97-15.6-3.35-.72-.76-1.05-2.09-2.29-2.68-3.37,6.04-8.59,19.52-9.68,25.49l-2.54,13.94-.92,10.99.23,7.81c.32,11.18,2.44,21.9,6.7,32.2l3.58,7.1c2.42,4.79,6.85,10.59,10.95,14.27l2.3,2.06c2.83,2.02,5.92,3.97,9.25,5.13l6.69,2.33,5.93,1.23,4.06.3c3.09.23,6.31.37,9.38-.02,8.65-1.11,18.38-4.42,23.45-11.61l2.77-3.92c.7-.99,1.53-2.45,1.81-3.61l1.1-4.51,1.92-13.77c.96-6.86,2.81-13.58,7.87-18.49l6.35-4.67c-2.45-1.82-5.39-2.1-8.36-1.04ZM77.32,247.68v.49l-1.31,1.31-1.64.82h-2.14l-1.15-.66-.99-1.15.16-.49,1.48-.66,1.81-1.81.66.16.99,1.15,2.14.82ZM72.81,196.73l-.99-2.14-.16-2.14,3.29-1.48.49.66.16.99-1.97,3.62-.82.49ZM77.25,189.5l-.49.16-.33-.99.66-.82h.49l.33.49-.66,1.15ZM79.39,185.06l-.49.49-1.48.49-2.14-.49-1.31-1.15-.33-.66.33-.66,1.97-.33,2.47-1.64,1.81.99-.82,2.96ZM66.04,166.36l-1.97-1.64.33-.49,1.15-.33.99-.66,1.48-1.64,2.96,1.48-.82,2.14-.99.99-.82.33-2.3-.16ZM67.68,168.34l-.66,1.48-1.81,1.64-2.47-.16-.99-.66-.99-1.31v-.33l1.15-.99h.33l1.31-1.48,1.48.82,2.14.49.49.49ZM74.2,163.68l-1.64-1.15.33-.66,1.48-.49,1.97-1.97h.33l2.47,2.14-.16.99-.99.99-1.48.49-2.3-.33ZM76.06,167.85v.49l-.82,1.31-.99.82-1.15.49h-.66l-1.31-.82-1.31-1.64v-.49l.33-.33,1.31-.49,1.31-1.31,1.81,1.31,1.48.66ZM74.36,157.75l-1.15,1.31-1.48.82h-2.14l-.82-.33-1.81-1.81.16-.49,1.64-.33,2.47-1.97,3.29,2.14-.16.66ZM69.65,176.89l1.31-.66,1.31-1.31h.33l1.97,2.3v.99l-1.48,1.31-1.64.16-1.31-.82-.49-.99v-.99ZM82.35,177.17l-.82,1.64-.16.99-.66.33-1.64-1.31-.66-1.15-.16-.99,3.12-1.48.99,1.31v.66ZM82.69,169.95l-.82.82-.82.49h-2.14l-1.64-.82-1.15-1.15.66-.99,1.97-.66,1.64-1.64h.33l1.31,1.15.99,1.64-.33,1.15ZM84.55,157.91l-.66.66-1.81.82-2.14-.33-.99-.66-.66-.99.33-.49,1.64-.82.82-.82.49-.99h.33l1.15.99,2.3.99-.82,1.64ZM77.97,147.72l1.81-.66,1.64-1.48.99-1.31,3.12,3.45v.33l-1.48,1.48-1.81.82-2.47-.49-.99-.49-.99-.99.16-.66ZM73.7,152.16l.99-.33,1.48-1.64,1.31.99,2.47,1.15-.66,1.48-1.15,1.15-1.15.33-2.14-.49-.99-.66-.99-1.31.82-.66ZM64.76,149.86l2.47-2.3.99,1.15,2.63,1.31.49,1.15-.82,1.48-1.15,1.15-1.64.66h-1.48l-1.15-.33-.99-.66-1.64-2.63,2.3-.99ZM59.64,161.94l.82-.16,1.15-.82,1.64-2.14,2.79,1.81-.33.82-.99.99-1.81.82h-1.64l-1.81-.82.16-.49ZM55.74,165.45l1.31-.49,1.31-1.15.66.66,2.14.66.49.66-1.31,1.15-2.14.16-1.64-.49-.82-.82v-.33ZM54.53,219.92l.82-.66h.99l1.97-.66,2.63,2.96-1.15.82-2.63-.16-1.48-.82-1.15-1.15v-.33ZM45.65,226.81l.33-.49,1.81-.16.33.33.16,2.47-.33.33h-.33l-1.48-1.31-.49-1.15ZM45.73,232.64l-.16,3.12-.33.33-1.31-.66-1.15-1.48-.16-2.14.49-.82,2.63,1.64ZM47.61,224.83h-1.97l-.82-.33-1.31-1.31-.49-1.15-.16-1.48.66-.33.99.66,2.3.49,2.14,2.3v.33l-1.31.82ZM40.78,172.68l.16-.49,1.64-.66,2.14-2.3,3.94,1.64-.99,1.81-.99.99-1.31.66-2.63-.16-1.97-1.48ZM41.71,219.94l-1.64,2.79h-.33l-.99-1.15-.49-1.64.16-2.14,1.31-1.81.49.16.16,1.97,1.31,1.81ZM50.29,216.64l.66-.66h.33l.82,2.14v1.31l-2.47,1.64-.66-.66-.33-.82,1.64-2.96ZM48.18,216.4l-.49.16-.16-1.31.33-.33h.49l.33.66-.49.82ZM43.52,202.19l.66.33.82.82v.33l-1.81.82-.33-.33-.49-1.81,1.15-.16ZM52.11,231.83l.33.33v2.14l.66,1.31-.49.49-1.15.33-1.48-.49-.82-.82-.49-.99-.33-2.3h3.78ZM52.33,230.99l-1.15-.99-.66-1.64.99-2.3h.82l1.81-.66.82,1.81,1.15,1.31-.16.99-2.3,1.48h-1.31ZM52.73,222.55l.66-.33.99.82.66.16.16.49-1.31.16-1.15-.99v-.33ZM52.29,166.77l-1.15,1.15-1.81.66-2.14-.49-1.64-1.48v-.49l1.31-.49,1.97-1.64,3.78,1.97-.33.82ZM45.11,150.64l.99-1.31h.33l1.64,1.31,2.14.99-.16.66-.82.99-1.97.82h-1.31l-1.64-.66-1.48-1.31v-.33l2.3-1.15ZM40.72,147.66l.66-.66.82-1.97.49-.16.82,2.3.16,2.47-.66.33h-2.63l-.49-.66.82-1.64ZM37.46,156.91l1.31-.49.82-.66,1.31-1.64,1.48,1.15,1.81.82-.99,2.14-1.81,1.48h-1.97l-.99-.49-1.15-1.64.16-.66ZM31.22,198.14l2.47.99,2.47,2.3.49,1.81v1.15l.33.33-.16,1.15h-.33l-1.48-1.48-2.79-1.15v-.49l-1.15-1.31.16-3.29ZM31.2,208.69l1.81-1.31h1.81l1.48,1.31.33,1.64-.33.33h-2.47l-1.97.82-.66-2.79ZM33.39,214.53l1.15-1.15,1.31-.66,1.15-.16,1.15.16.49.82-.33.33-.99.16-.99.66-1.31,1.48h-1.97l.33-1.64ZM35.8,224.71l-1.31-1.48-.49-1.48v-1.48l.49-.99,1.31-1.15.49.16.16,3.45,1.15,1.64-1.48,1.31h-.33ZM37.15,228.4l.33-.49.82-.16,1.31-.82,1.81-1.81h.33l1.48,1.48.99.49-.33,1.31-1.48,1.48-1.31.49-2.14-.16-.99-.66-.82-1.15ZM39.84,237.41l-1.31-1.48-.33-.99v-1.64l.82-1.31.49.16.16,1.15.66,1.15.82.82,1.97,1.15-1.48,1.81-1.81-.82ZM42.37,241.12l-.16-.49,1.15-.82,2.79-.33.33.33.33,1.81-.33.33-2.63-.33-1.48-.49ZM52.28,248.19l-.33.33h-1.31l-1.64.66h-.66l-.49-.49-1.48-.33-.49-.66,1.31-1.48,1.81-.49,1.64.16,1.81.82-.16,1.48ZM54.16,242.27l-.49.49-2.96.16-1.15-.49-.82-.82-.66-1.31v-1.15l.33-.33v-.49l.49-.33.82.99,1.64.66,2.47-.16.33.33v2.47ZM54.48,249.21v-3.12l.49-.49,1.15.16,2.14-.82.49.49.33,1.64-3.62,3.62-.99-1.48ZM62.53,254.92l-.16,1.31-1.81.99-2.3.33-.66-.66-.82-1.64v-.66l.82-1.81,1.48-1.31,1.81,1.15,2.63.49-.99,1.81ZM63.54,241.57l-1.31,1.15-1.48.49h-1.31l-1.64-.66-1.48-1.64.16-.66,1.81-.33,1.48-.82.82-.82,3.12,1.64-.16,1.64ZM67.48,236.64l-1.64,1.31-2.47-.16-1.81-1.48.33-.66,1.64-.66,1.81-2.3,1.31,1.15,1.31.49.49.49-.99,1.81ZM68.58,187.07l.33-.66h1.31l2.79-.99,1.81,2.14v.49l-1.97,2.96-.99-.16-2.14-1.64-1.15-2.14ZM68.94,243.9l.16-3.12,3.62,1.64-1.15,2.14-1.64,1.48-.66-.16v-1.64l-.33-.33ZM70.42,254.42l-.49-2.47.49-.33,1.31.66,1.48.16,1.31,1.64-1.48,1.48-1.81.49-.82-1.64ZM77.32,257.87l-1.31,1.15-3.29.16-.66-.16-.49-.49.33-.49,1.48-.33,1.31-.66,1.48-1.64,1.81.82-.66,1.64ZM82.64,250.71l-.66,1.15-1.15,1.31-.82.49h-1.15l-1.15-.49-1.15-1.15-.16-.66,1.97-.82,1.31-1.15.66-.99h.33l1.97,1.81v.49ZM105.86,231.4c-.67-7.94-4.24-14.8-10.04-20,2.93,0,3.78,2.62,5.25,4.22,3.92,4.27,5.55,13.25,6.01,19.88-1.37-.89-1.1-2.71-1.22-4.1ZM112.61,231.16c-1.09-1.39-.05-3.01-.12-4.38-.25-5.44,3.67-14.04,7.23-18.62.66-.85,1.58-1.75,3-1.44-2.8,2.18-4.35,4.97-5.8,8.03-.81,1.72-1.68,3.24-2.11,5.11-.86,3.76-1.6,7.28-2.21,11.3ZM119.03,219.49c-1.47,4.26-3.25,8.15-3.98,13.15-.65-1.36-.34-2.98.22-4.55l3.99-10.98c.93-2.57,1.68-5.65,4.58-6.82-1.89,3.25-3.68,5.89-4.82,9.2Z"/>
        <path d="M95.55,80.13c6.23,2.46,9.35,10.03,9.03,16.59-.09,1.94-.53,5.13-3.9,14.27-1.96,5.31-4.63,10.33-7.43,15.24-2.39,4.17-6.68,8.58-6.84,13.41-.17,5.19.81,9.63,1.22,14.58.52,6.33-1.64,11.16-1.18,16.66.17,2.05.59,4.18,1.87,5.8,1.28,1.62,3.63,2.54,5.48,1.64,1.91-.93,2.6-3.4,2.31-5.51-.29-2.11-1.29-4.05-1.9-6.09-.6-2.04-.73-4.44.58-6.12,1.29-1.66,3.72-2.28,4.68-4.16,1.12-2.18-.26-4.46-.83-6.57-.99-3.67-.17-7.52,2.09-10.55,1.82-2.45,4.52-4.64,4.88-7.87.12-1.05,0-2.1-.22-3.15-.56-2.65-1.85-5.31-1.99-8-.23-4.24.93-8.4,2.31-12.36,2.1-6.01,2.56-9.31,1.92-15.59-.37-3.59-2.88-8.48-5.62-11.06-1.4-1.32-2.53-1.92-3.52-3.17-1.55-1.96-2.03-3.89-1.86-6.1.21-2.73-.19-5.59-1.8-7.88-2.61-3.71-8.54-4.02-10.49-7.98-1.25-2.53,0-5.5.23-8.31.25-3.1-.86-6.29-2.98-8.57-2.12-2.27-5.09-3.56-8.09-4.34-3.75-.97-7.71-1.21-11.53-.58-2.44.4-4.97,1.27-6.45,3.25-.79,1.06-1.2,2.34-1.43,3.66-.87,1.53-1.17,3.38-1.43,5.15-.42,2.83-.84,5.66-1.27,8.5-.11.73-.21,1.5.09,2.17.27.59.81,1.01,1.25,1.48,1.56,1.65,2,4.05,3.1,6.04,1.72,3.1,5.21,5.12,8.75,5.07-.64,2.53-1.65,4.96-2.98,7.2-.21.36-.46.73-.85.88-.33.12-.7.06-1.05,0-5.98-.91-11.78,3.38-14.57,8.75-2.79,5.37-3.24,11.6-3.64,17.64-.76,11.61-1.51,23.46,1.46,34.72.4,1.52.88,3.05,1.77,4.36.77,1.14,1.84,2.06,3.01,2.79,5.35,3.31,12.62,2.17,17.76-1.46,5.14-3.63,8.47-9.3,10.88-15.12,2.41-5.81,4.05-11.93,6.69-17.65,2.64-5.71,6.47-11.15,12.02-14.13.58.49-.15,1.37-.79,1.79-7.54,4.83-11.15,13.81-14.09,22.27-2.94,8.46-6.02,17.49-13.05,23.04,3.26,2.6,8.25,1.88,11.66-.52,3.41-2.41,5.63-6.12,7.77-9.7,5.71-9.53,11.69-19.05,15.05-29.64,1.96-6.19,2.85-13.41-.8-18.79-2.88-4.24-8.02-6.06-12.78-7.96l-5.47-2.22c-1.4-.61-1.86-1.48-1.16-1.16M84.56,58.71c-.18-.18-.33-.37-.47-.57.37.37.75.74,1.14,1.12-.23-.17-.46-.35-.66-.56Z"/>
        <path d="M79.29,49.9l.82-4.81c1.9.44-1.37,4.33.39,8.14,2.05,4.44,11.08,8.39,9.84,17.06-.08.59-.98.47-.92-.12.15-1.46.3-2.87-.28-4.24-3.33-7.88-11.01-9.17-9.84-16.04Z"/>
        <path d="M75.51,41.44c1.17,1.65,1.81,3.63,1.55,5.63-.25,1.91-1.27,3.74-1.02,5.65.18,1.35.99,2.55,1.95,3.51.97.96,2.11,1.73,3.15,2.6,2.38,1.98,4.36,4.6,4.97,7.63.45,2.26.13,4.54-.2,6.8-.81-1.96.05-4.29-.39-6.38-.43-2.04-1.45-3.97-2.92-5.45-1.3-1.3-2.9-2.25-4.32-3.42-1.41-1.17-2.69-2.68-2.96-4.5-.32-2.14.82-4.22.98-6.38.26-3.6-2.32-6.96-5.55-8.59-3.16-1.6-6.81-1.84-10.29-1.78,3.62-.48,7.59-.39,10.95,1.21,1.62.77,3.07,1.99,4.11,3.45Z"/>
        <path d="M37.7,114.68c-1.96-4.24-3.54-10.48-7.57-12.84-2.2-1.29-5.68-.99-8.22-1.27-4.68-.51-11.19-1.86-13.44-.02-.71.58-1.12,1.28-.25,1.57l10.27,3.32c1.42.46,5.87,1.83,6.97,2.84,1.93,1.77,2.69,1.68,3.22,4.24,2.54,12.26,8.74,23.72,17.7,32.39.54.53,1.17.96,1.88,1.23,2.83,1.06,4.03-1.33,4.84-3.05,1.28-2.73,1.86-5.73,1.67-8.74-.25-3.96-.94-3.92-3.93-5.19-6.31-2.67-10.33-8.39-13.14-14.48Z"/>
        <path d="M0,92.61c7.23-.16,6.76-.81,13.92.16.18-.6-2.11-3.42-2.85-10.23,4.81,2.44,8.22,8.61,8.49,8.57.3-.04,4.29-6.65,7.05-7.96.41,6.55.93,6.41-.99,11.03,2.99-1.57,8.89-3.37,12.08-2.25.25,1.4-12.78,12.33-21.17,9.35-2.39-.85-4.85-2.1-7.22-2.98-3.46-1.3-6.63-3.1-9.3-5.68Z"/>
        <g>
          <path d="M91.15,31.88c-.44.49-1.1.68-1.65.93-1.24.56-2.52.74-3.66.07-.51-.3-1.45-2.21-1.14-3.07,1-2.83,2.9-3.38,3.98-4.61l1.16-1.32,2.16-2.2,2.79-2.7,2.68-2.68c1.1-1.1,2.01-2.1,2.74-3.44.45-.84,1.35-1.52,2.05-2.2.61-.59,1.29-1.03,2.04-1.38.62-.29,1.12-.29,1.53.15.65.7,1.21,1.74.67,2.74l-1.12,2.11-1.24,1.82-2.56,3.35-2.31,3.14c-.33.78-.76,1.49-1.43,2.12l-1.9,1.8-2.05,2.39-2.74,3Z"/>
          <path d="M112.01,57.68c.54,1.31.58,4.09-.81,3.94l-1.46-.43-2.34-.73-2.05-.64-1.86-.48c-1.53-.22-2.95-.54-4.43-1l-2.85-.9-2.34-.72c-1.39-.43-2.7-.97-4.18-.63-.71.16-1.42-.1-1.88-.73-.86-1.15-.86-2.77-.06-3.95.4-.59.94-.72,1.55-.9.82-.25,1.55-.41,2.4-.17l1.84.53,2.21.75c.57.19,1.1.36,1.72.42,1.26.12,2.4.65,3.61.96l2.72.7,1.84.86c1.1.3,2.09.58,3.11,1.12l2.68,1.41c.16.09.5.41.57.59Z"/>
          <path d="M54.89,31.95c-1.01.97-2.11.73-3.05.08-1.11-.76-1.91-1.66-2.43-2.97l-.85-1.47c-.51-.88-.91-1.65-1.55-2.46-.32-.4-.46-1.14-.68-1.62l-1.38-3.12-.52-1.42-.9-2.52-.68-1.45-.92-2.22-1.61-3.5c-.42-.92-.69-1.8-.76-2.79-.06-.9-.17-1.95.53-2.48.18-.13.69-.08.84.09l.59.68,3.87,6.08.91,1.21,1.64,2.36,1.34,1.94c.99,1.18,1.75,2.45,2.17,3.94l.43.89,2.3,3.72.6,1.55c.66,1.69,1.97,3.67.1,5.46Z"/>
          <path d="M117.27,40.1c.89.61,1.02,2,.28,2.72-.48.47-1.31.48-1.95.59l-4.8.78-1.85.33-3.07.6-7.1.94-2.72.46c-1.72.29-3.39.38-5.14.42-.65.02-1.24.02-1.7-.38-1.01-.9-.75-2.58-.05-3.85.21-.39.87-.82,1.3-.94l2.39-.66,2.09-.13c.94-.06,1.77.08,2.68-.19,1.15-.33,2.39-.2,3.58-.09.82.08,1.34-.11,2.07-.4.86-.33,1.98-.3,2.91-.37l2.78-.21c.63-.05,1.25.17,1.88-.07.52-.2,1.03-.18,1.58-.09l1.77.3,2,.2c.24.02.82-.13,1.05.03Z"/>
          <path d="M43.77,38.12l-2.16-1.6c-.29-.22-.85-.67-.99-.99-.44-.95-1.22-1.35-1.99-1.99l-1.32-1.11-1.38-1.25-1.27-1.25-1.34-1.12-2.77-2.65c-.61-.59-1.41-.92-2.12-1.45-.4-.29-.61-.9-.89-1.3l-1.66-2.37c-.74-1.05-.32-2.99.44-3.3.49-.2.99.16,1.41.27,1.05.28,1.77.73,2.6,1.47.48.43,1.31.68,1.8,1.17l4.21,4.24,1.32,1.36,2.13,2.09c1.54,1.51,3.04,3,4.54,4.54l3.68,3.77c.29.3.48.97.27,1.3-.5.76-1.38.87-2.16.88-.87.01-1.59-.16-2.34-.72Z"/>
          <path d="M64.88,27.61c-.39.68-.94,1.59-1.8,1.58-1.33-.02-2.28-1.05-2.97-2.07-.48-.71-.59-1.24-.61-2.08-.02-.72-.27-1.55-.48-2.25l-.57-1.86c-.53-1.73-.85-3.46-.95-5.28-.36-.89-.55-1.79-.58-2.74l-.34-1.54-.55-2.74c-.2-.99-.66-1.98-.57-3.02.03-.34.32-.78.15-1.12-.94-1.84.6-4.75,1.73-4.45.22.06.59.49.63.72.16.86.45,1.53.69,2.35l.35,1.2c.46.97.69,1.89,1.06,2.89l.8,2.17.6,1.94.6,1.77c.21.61.5,1.37.5,2,0,1,.27,1.65.83,2.49.48.71.21,1.73.17,2.51l-.14,2.91c-.05,1.06,2.92,2.13,1.47,4.63Z"/>
          <path d="M70.14,28.37c-.7-.05-1.45-.63-1.63-1.27-.68-2.35.58-4.08.26-5.74-.24-1.24.05-2.26.23-3.45l.6-4c.06-.39.09-.77.19-1.14l.56-2.05c.39-1.43.72-2.78.86-4.28l.41-1.42c-.25-1.14.32-2.34,1.45-2.73.53-.18.94.44.91.92-.04.64.23,1.14.38,1.73.43,1.74.99,6.63.78,8.22l-.2,1.51-.63,3.71-1.06,6.78c-.12.76-.33,1.64-.75,2.24-.48.69-1.53,1.04-2.36.98Z"/>
          <path d="M81.64,29.15c-.89,1.31-2.34,2.09-3.92,1.71-.82-.2-1.27-.63-1.72-1.35s-.72-1.43-.47-2.32c.44-1.58,1.48-2.91,2.41-4.3.55-.82.85-1.78,1.48-2.53s1.01-1.62,1.55-2.46l1.21-1.88c.66-1.02,1.31-1.95,1.89-3.02l.75-1.37c.54-1,.86-2.18,1.58-3.05l1.4-1.69c.3-.37.76-.4,1.12-.02l-1.53,6.6-.46,1.45-.94,3.85-.62,2.11c-.23,1.43-.9,2.45-1.75,3.62l-1.21,1.69c-1.25,1.75-.35,2.34-.78,2.98Z"/>
          <path d="M93.09,38.37c-.82.28-1.61.69-2.47.48-.77-.19-1.19-.96-1.21-1.76-.03-.96.37-1.95,1.15-2.56.45-.35,1.14-.39,1.66-.6l3.25-1.25,2.65-1.1,2.31-.57,2.43-.77,4.37-1.21,1.67-.55,2.39-.52c1.47.08,2.48-.68,3.96-.65l1.93.04c.15,0,.47.29.46.43s-.22.41-.37.47l-3.35,1.39-3.66,1.34-3.01,1.2-1.46.53c-1.41.51-2.82.91-4.04,1.79l-2.16,1.56c-.85.61-1.61.83-2.66,1l-1.57.52-2.28.77Z"/>
        </g>
      </g>
    </g>
  </g>
</svg>