<?xml version="1.0" encoding="UTF-8"?>
<svg xmlns="http://www.w3.org/2000/svg" viewBox="0 0 196.84 191.16">
  <defs>
    <style>
      .cls-1 {
        isolation: isolate;
      }

      .cls-2 {
        mix-blend-mode: hard-light;
      }
    </style>
  </defs>
  <g class="cls-1">
    <g id="Layer_2" data-name="Layer 2">
      <g id="Layer_1-2" data-name="Layer 1">
        <g>
          <g class="cls-2">
            <path d="M3.65,156.51h8.32l8.37,14.78,2.94,6.95.24-.05s-.93-5.97-.98-5.97v-15.71h8.71v34.65h-8.86l-7.83-13.66-3.03-6.95-.24.05,1.13,6.71v13.85H3.65v-34.65Z"/>
            <path d="M45.64,191.16v-13.66l-12.09-21h10.18l6.27,12.73,6.27-12.73h10.28l-12.14,21v13.66h-8.76Z"/>
            <path d="M68.79,156.51h8.76l7.29,16.94,7.34-16.94h8.76v34.65h-8.81l.05-9.98.54-7-.29-.05-4.55,11.89h-6.02l-4.65-11.89-.24.05.59,7v9.98h-8.76v-34.65Z"/>
            <path d="M106.43,156.51h13.85c8.47,0,12.68,6.12,12.68,12.24s-4.26,12.29-12.63,12.29h-5.14v10.13h-8.76v-34.65ZM120.28,173.25c5.29.05,5.29-8.61,0-8.57h-5.09v8.57h5.09Z"/>
            <path d="M145.49,191.16h-8.81v-34.65h8.81v13.12h9.98v-13.12h8.81v34.65h-8.81v-13.07h-9.98v13.07Z"/>
          </g>
          <g>
            <path d="M66.07,143.2c-2.71-2.65,4.19-10.27-1.92-21.5-1.86-3.41-1.09-7.27-.66-10.69l2.75-21.52c.62-4.86,2.69-8.55,4.73-14.05l-6.23,3.69c-2.22,1.31-4.05,3.16-5.45,5.33-2.88,4.44-6.46,7.19-11.69,8.96l-5.41,1.34c-2.41.6-4.71,1.63-6.68,3.13-.11.08-.2.15-.3.22-2.77,1.94-5.37,3.81-8.77,4.22-1.8.22-3.54.81-5,1.89l-2.89,2.14c-.98-8.5,7.01-6.71,10.34-9.03,4.25-2.96,5.88-7.29,11.94-7.42,3.8-.08,8.36-3.62,10.69-6.77,5-6.74,11.11-11.59,18.13-15.95l12.24-7.59-11.26,2.38c-5.71,1.21-10.12,2.86-13.81,7.36-9.6,11.73-20.3,2.78-26.75,10.05-7,7.9-12.84,1.61-22,2.83,3.37-8.24,12.11-.19,17.34-6.16,9.38-10.7,19.21-2.3,25.74-10.29,6.81-8.34,15.44-12.46,26.35-12.41l12.12-7.17-9.17-.82c-5.71-.51-10.55-.09-14.88,3.71-5.33,4.68-12.06,5.77-18.77,2.74s-15,8.28-24.54-.43c-3.69-3.37-8.46-3.33-14.48-3.86,4.51-5.45,11.48-4.21,16.49-.91,3.13,2.07,7.19,2.47,10.41.72,11.4-6.19,19.17,2.82,26.81-4.1,6.24-5.65,13.02-6.57,21.11-4.84,4.68,1,10.26-1.4,14.65-3.6,6.14-3.07,15.2-2.29,18.47,4.08l4.52,8.8c.41.79.56,1.69.44,2.57l-.99,7.17c-.16,1.16-1.01,2.11-2.14,2.4l-5.14.39c-2.47.72-2.51,8.96-.29,10.06l11.86,1.56,15.04.19,6.64-5.92c3.83-3.41,8.79-6.89,11.54-11.18,3.19-4.99,5.73-9.47,12.9-10.2l-4.16,5.09,12.69-2c-2.98,4.3-7.4,5.57-12.2,6.22-3.94.54-6.06,3.33-8.44,6.69-12.56,17.78-9.42,18.68-34.26,21.28-1.77.18-19.41,1.35-19.41,1.35l-2.13,23.79.65,21.1c.11,3.72.58,8.46,2.05,11.49,5.84.96,10.13.96,14.63,5.86-5.16,2.55-14.14.86-19.47-1.87-.89-6.88-2.1-13.33-4.22-19.66-2.45-7.29-2.06-13.34-1.25-20.95.47-4.37-.54-9.29-1.48-14.2-.4-2.06-1.39-3.97-2.86-5.47h0c-1.24-1.26-3.35-.95-4.16.62-1.85,3.56-4.55,8.87-4.55,8.87l-6.47,13.62c-2.49,5.25-2.59,13.41-3.02,19.36-.48,6.6,4.06,13.25,10.07,14.43,3.54.7,6.79.67,8.71,5.03-3.21.69-8.15,1.43-10.53.44-9.3-3.87-12.31-.71-14.26-2.6Z"/>
            <path d="M11.12,135.27c.01,8.25,5.43,6.2,7.12,9.57.84,1.67-6.02,2.92-10.71.11-1.59-.95-2.48-4.36-2.7-6.8-.67-7.36-6.29-9.68-4.46-13.67.75-1.64,3.4-2.97,5.36-3.09,13.93-.86,18.48-15.1,36.83-13.71,3.28.25,7.33-1.79,9.31-4.18l12.49-15.12-4.37,13.17c-1.37,4.12-.27,12.73-6.27,14.69l-16.52,5.41-18.83,3.94c-5.51,1.15-7.25,4.19-7.24,9.69Z"/>
            <path d="M153.46,145.1c-5.05-1.01-8.02,1.56-11.56.19-3.23-1.26,1.95-8.06-3.78-12.56l-11.82-9.29c-11.24-8.84-2.08-19.75-15.13-25.32l7.85-10.54,8.64,11.22,6.97,14.35c3.74,7.7,7.66,15.21,13.3,21.76l13.19,6.84c1.62.84,5.87-.56,5.26,3.85-3.62.81-8.42.41-12.93-.49Z"/>
          </g>
          <polygon points="176.88 43.56 174.56 28.07 163.7 36.57 171.72 25.06 157.51 22.72 171.89 20.46 164.26 9.86 174.54 17.25 177.09 0 179.15 17.5 190.4 8.9 182.09 20.52 196.84 22.65 182.2 25.09 189.12 35.59 179.27 27.9 176.88 43.56"/>
        </g>
      </g>
    </g>
  </g>
</svg>